<?xml version="1.0" encoding="utf-8"?>
<!-- Generator: Adobe Illustrator 26.5.0, SVG Export Plug-In . SVG Version: 6.00 Build 0)  -->
<svg version="1.1" id="Lag_1" xmlns="http://www.w3.org/2000/svg" xmlns:xlink="http://www.w3.org/1999/xlink" x="0px" y="0px"
	 viewBox="0 0 1184.2 553.9" style="enable-background:new 0 0 1184.2 553.9;" xml:space="preserve">
<path d="M591.5,456.7c1.8,5.4,4.1,9.5,7.3,13.1c4.7,5.3,10.7,8,17.6,8.8c2.4,0.3,4.5-0.3,6-2.3c1.7-2.1,3.3-4.3,4.6-6.7
	c3.3-5.6,5.6-11.5,7.7-17.5c0.9-2.6,2.2-5,3.7-7.2c3.4-4.8,6.7-9.8,10.2-14.6c1.8-2.5,2.7-4.9,3.1-7.9c3-23.2,6.3-46.3,9.4-69.4
	c4.4-32.7,8.9-65.2,13.3-97.9c0.1-1.1,0.3-2.2,0.4-3.3c0.7-4.7-0.5-9-3.5-12.5c-2.2-2.6-4.6-4.9-7.1-7.2c-3.4-3.2-7.1-6.1-10.5-9.2
	c-6.6-6.1-11.9-12.9-15-21.4c-3.1-8.2-4.1-16.7-3.6-25.5c0.4-8.5,2-16.8,3.9-25.1c5.1-21.7,13.6-42,26.7-60.1
	c4.7-6.6,10-12.8,16.3-18.2c3.5-3.1,7.3-5.7,11.6-7.6c3.8-1.7,7.4-1.7,11.3-0.6c3.4,1,6.4,2.8,9.2,5.1c4.4,3.5,8,7.8,11.1,12.5
	c5.6,8.2,9.9,17.1,13.4,26.5c4.3,11.4,7.3,23.2,9.2,35.2c2.1,14.7,2.7,29.3,0.2,43.9c-1.2,7-3.1,13.7-6,20.1
	c-2.6,5.7-6.1,10.9-10.6,15.3c-1,1-2.1,1.9-3.3,2.8c-1.1,0.8-2.3,0.7-3.2-0.1c-0.8-0.7-1-1.7-0.8-2.6c0.2-0.6,0.4-1.2,0.6-1.8
	c4.9-12.2,6.5-25,6.6-38c0.1-14.1-1.5-28.1-4.5-41.8c-2.6-11.4-6.1-22.6-11.5-33c-2-4-4.3-7.9-7.4-11.2c-1.7-1.8-3.7-3.5-5.8-4.9
	c-2.3-1.4-4.7-1.5-7.3-0.2c-4.8,2.4-11.2,7.9-14.1,12.6c1.7-0.9,3-1.5,4.2-2.3c2.9-1.7,6-3,9.3-3.7c4-0.9,7.2,0.3,9.5,3.8
	c3,4.4,5.3,9.1,7.2,14.1c6.7,17.4,11.1,35.4,12.8,54c1.1,12.8,1,25.5-1.2,38.2c-1.2,6.8-3.1,13.3-5.9,19.7c-0.9,2.1-2.1,3.5-4.2,4.3
	c-2.1,0.8-4.2,1.7-6.1,2.7c-1.9,0.8-3.7,1.8-5.6,2.7c-6.3,3.1-9.5,8.2-9.8,15.3c-0.7,18.7-1.6,37.4-2.4,56.1
	c-1.4,33-2.9,66.1-4.2,99.1c0,0.2,0,0.3,0,0.5c0.3,3.3-1,5.7-3.2,8.1c-9.6,10.1-18.9,20.4-28.4,30.6c-1.9,2.1-3.3,4.2-4.5,6.8
	c-5.7,12.7-9.9,25.7-11.2,39.5c-0.8,8.7-0.4,17.2,2,25.6c1,3.2,2.3,6.3,3.8,9.3c0.8,1.7,2.1,3.2,3.4,4.7c5.1,5.6,11,6.3,17.1,1.9
	c2.4-1.6,4.4-3.7,6-6c2.2-3.1,4.1-6.5,5.7-9.9c3.6-7.9,5.4-16.4,6.6-24.9c0.1-0.6,0-1.2,0-2.2c-2,0.4-3.6,0.8-5.2,1.3
	c-4.6,1.4-9.4,1.9-14.3,2.1c-3.5,0.1-5.5-1.6-5.6-5.1c-0.1-1.7,0.2-3.5,0.5-5.3c0.4-2.2,0.9-4.4,1.6-6.6c4.4-14.6,10.3-28.6,17.6-42
	c1-1.8,2.1-3.5,3.5-5.2c0.7-0.8,1.5-1.6,2.6-2.1c1.5-0.8,3.3-0.1,3.9,1.5c0.4,0.9,0.5,1.8,0.6,2.7c1.5,15.5,2.2,31,1.4,46.5
	c0,1,0.1,2.1,0.1,3.6c1.7-0.7,2.9-1.1,4.1-1.8c6.2-3.2,12.1-7.1,17.3-12c12.3-11.6,26.8-19.7,42.5-25.6c12.5-4.7,25.3-8.1,38.3-10.6
	c17.8-3.4,35.7-5.5,53.7-6.8c23.1-1.7,46.3-2.4,69.5-2.5c28.3-0.1,56.6,0,84.9-0.4c19.5-0.2,39.1-0.8,58.5-1.6
	c15.2-0.7,30.3-1.9,45.3-4.9c14.1-2.9,28.2-6,42-9.7c11.4-3.1,22.8-6.4,34.1-10.1c10.5-3.5,20.9-7.2,30.9-11.8
	c0.9-0.4,1.7-0.7,2.7-1c0.3,0.6,0.7,0.9,0.8,1.4c0.3,0.9,0.3,1.9,0.5,3c-1.3,0.7-2.4,1.4-3.5,1.9c-9,4.1-18.2,7.7-27.8,10.7
	c-12.5,3.9-25,7.9-37.7,11.2c-17.6,4.7-35.4,9-53.5,11.6c-9,1.3-18.1,2-27.3,2.6c-11,0.7-22,1.1-33,1.5c-13.2,0.4-26.5,0.5-39.8,0.6
	c-21.7,0.2-43.5,0-65.3,0.2c-15.3,0.1-30.7,0.2-46.1,0.7c-15.7,0.4-31.3,1.4-46.9,2.9c-13.6,1.4-27,2.9-40.5,5.5
	c-13.1,2.5-25.9,5.8-38.4,10.5c-15,5.7-29,13.3-40.9,24.6c-6.7,6.3-14.4,11.2-22.8,14.9c-0.9,0.4-1.7,0.8-2.8,1.3
	c-0.2,1-0.6,2-0.7,3.2c-0.9,6.8-2.2,13.6-4.3,20.1c-2.2,6.8-4.8,13.2-9,19c-3.1,4-6.5,7.3-11.2,9.5c-5.8,2.6-11.2,1.9-16.3-1.7
	c-3.4-2.4-5.8-5.5-7.8-9c-3.4-6.1-5.2-12.7-6-19.6c-1.2-10.1-0.4-20.1,1.7-30.1c2.3-10.9,6.1-21.2,10.7-31.2c1-2.1,2.4-3.8,3.9-5.4
	c9.4-10.1,18.7-20.2,28.1-30.2c1.9-2.1,2.7-4.1,2.9-6.8c1.4-32.9,2.8-65.8,4.2-98.7c0.8-18.4,1.5-36.7,2.4-55.1
	c0.1-0.8,0.1-1.6,0.2-2.4c0.5-7,3.6-12.6,9.6-16.2c3.6-2.2,7.3-3.9,11.1-5.6c5.7-2.4,4.8-2.1,6.9-7.2c3.8-9.8,5.4-20,5.7-30.6
	c0.6-16.2-1.1-32.3-5-48.1c-2.5-9.9-5.3-19.8-9.5-29.2c-1.4-3.2-3.2-6.2-4.9-9.3c-0.9-1.8-2.5-2.5-4.4-2c-2,0.6-4.1,1-5.9,1.9
	c-11.7,6.1-19.8,15.5-24.2,27.9c-0.4,1.2-0.7,2.5-1.3,3.6c-0.5,0.9-1.4,1.4-2.4,1.2c-1.1-0.2-1.8-0.8-1.9-1.9
	c-0.1-1.1,0-2.2,0.1-3.4c0.6-4.2,1.9-8.1,3.6-11.9c4.9-11,11.9-20.4,21-28.3c2.6-2.2,5.3-4.1,8.3-5.6c3.9-2,7.7-1.7,11.5,0.3
	c2.9,1.5,5.4,3.5,7.4,6.1c2.4,3.1,4.8,6.5,6.7,9.9c4.5,7.8,7.5,16.2,10.2,24.8c2.8,9.2,4.6,18.7,6,28.2c2.5,17.5,2.7,35.1-0.9,52.5
	c-0.1,0.6-0.2,1.2-0.3,2.8c1-1.3,1.5-1.7,1.9-2.3c3.6-6.1,5.8-12.8,7.2-19.7c1.8-8.8,2.3-17.8,2-26.8c-0.4-13.1-2.5-26.1-5.9-38.9
	c-3.4-12.5-8.1-24.6-14.8-35.8c-3-4.8-6.2-9.3-10.3-13.2c-2.6-2.5-5.4-4.5-8.8-5.9c-3.3-1.3-6.4-1.4-9.7,0.3
	c-3.5,1.7-6.6,3.9-9.5,6.5c-6,5.1-11,11.1-15.6,17.5c-13.1,18.4-21.5,38.8-26.3,60.8c-2,9.1-3.6,18.2-3.4,27.5
	c0.3,12.2,4.1,23.2,12.5,32.4c2.4,2.6,4.9,5,7.6,7.4c2.8,2.6,5.9,5,8.7,7.6c2.2,2.1,4.4,4.2,6.3,6.5c3.9,4.8,5.7,10.3,4.6,16.5
	c-1.3,9.2-2.4,18.4-3.8,27.6c-6.4,47.6-12.9,95.4-19.4,143c-0.6,3.8-1.7,7-3.9,10c-3.5,4.7-6.8,9.6-10.1,14.6
	c-1.2,1.8-2.1,3.9-3.1,5.9c-2.5,5.7-4.8,11.5-7.5,17.2c-1.3,2.9-3.3,5.5-5.3,8c-3,3.9-6.9,5.4-11.8,4.5c-10-1.7-18-6.4-23.4-15.1
	c-1.7-2.8-3.1-6-4.5-9c-0.8-1.6-1.3-3.2-1.9-5c-1.2-0.6-2.6-1.2-3.8-1.9c-3.5-2.1-7.2-4.3-10.5-6.7c-4-2.7-7-6.5-9.4-10.7
	c-0.5-0.8-0.9-1.7-1.4-2.5c-11.8-21.8-23.7-43.5-35.4-65.3c-14.7-27.5-29-55.2-43.8-82.6c-2.4-4.4-2.2-8,0-12.2
	c2.6-4.7,5.1-9.6,7.6-14.4c0.9-1.7,1.6-3.4,2.3-5.3c0.4-0.9,0.5-1.8,0.8-2.8c-3.3-6.1-6.7-12-9.8-18.2c-12.6-25-25.1-50-37.7-75
	c-4.2-8.4-8.6-16.8-13.1-25.1c-0.8-1.4-1.6-2.7-2.4-3.9c-1.3,0.4-0.8,1.2-0.6,1.6c5,11.9,9.9,23.9,15.1,35.8
	c7.3,16.7,14.9,33.3,22.3,49.9c1.4,3.1,2.5,6.3,3.7,9.4c0.4,1.1,0.7,2.4,1,3.7c0.3,2-0.4,3.5-2,4.5c-6.1,3.4-7.6,3.2-10.4-2.3
	c-4-7.9-8.1-15.9-11.9-24.1c-9.1-19.9-18.1-39.9-27.1-59.9c-1.2-2.6-2.4-5.3-3.6-7.8c-0.5-1.1-1.1-2.3-1.8-3.3
	c-1-1.6-2.3-2.1-3.1-1.4c-1.1,0.9-0.7,2-0.3,3.1c2.1,5.2,4.2,10.4,6.4,15.5c8,18.1,16.2,36.2,24.1,54.3c3.2,7.4,6.1,14.8,8.9,22.3
	c0.9,2.4,1.4,4.9,1.8,7.4c0.4,2.2-0.6,3.7-2.5,4.7c-4.4,2.4-6,2.2-8.9-1.9c-2.1-3.1-3.8-6.2-5.5-9.5c-7.6-14.6-14-29.8-20.6-44.9
	c-5.4-12.1-10.7-24.3-16.2-36.3c-1-2.4-2.4-4.5-3.6-6.8c-0.2-0.4-0.9-0.7-1.2-0.6c-0.5,0.3-1.1,0.9-1,1.3c0.2,1.9,0.5,3.8,1.2,5.6
	c2.5,6.9,5.2,13.8,7.8,20.7c7.6,20.2,15.2,40.4,22.9,60.5c5.1,13.6,10.2,27.2,15.3,40.9c0.2,0.8,0.7,1.5,0.9,2.2
	c0.4,2,1.8,2.9,3.7,3.3c2.2,0.4,4.4,0.9,6.6,1.3c2.4,0.4,4.8,0.6,7.1,1.1c1.9,0.4,3.7,0.9,5.5,1.5c3.7,1.2,6.3,3.6,8,7.1
	c4.2,9,8.6,17.9,12.9,26.8c12.1,24.9,24.3,49.7,36.3,74.6c7.8,16.2,13.9,33,18.6,50.3c1.5,5.5,3,11.2,4.5,16.7
	c0.3,0.9,0.5,1.8,0.9,2.9c1.5,0.2,2.9,0.6,4.2,0.9c15,2.9,29.4,7.7,42.9,15.1c3.7,2.1,6.8,4.7,9.2,8.2c8.2,12.3,13.8,25.6,15.6,40.4
	c0.7,5.5,0.4,10.9-0.9,16.2c-1.4,5.7-4.2,10.6-8.6,14.8c-2.9,2.7-6.2,3.9-10.1,3.2c-2.6-0.6-5.4-1.1-7.8-2.2
	c-11.5-5.3-20.9-12.8-27.1-24.1c-4.5-8.4-8.3-17.3-11.3-26.4c-3.8-11.9-6.4-24.2-9.2-36.2c-0.4-1.7-0.8-3.4-1.2-5
	c-5.2-1.1-10.1-1.5-15-1.7c-13.8-0.8-27.5-0.3-41.2,1.1c-15.7,1.5-31,4.4-46.4,7.6c-13.9,3-27.7,6.7-41.4,10.6
	c-34.8,10.2-68.8,22.4-102.4,35.6c-33.5,13.2-66.8,26.7-100.3,40c-25.2,10-50.6,20-76.2,29.1c-17,6-34.2,11.7-51.6,16.5
	c-4.7,1.2-9.3,2.6-13.9,3.8c-0.6,0.2-1.2,0.1-1.8,0.2c-1.3-1.2-1.4-2.6-1.1-4.3c1-0.4,1.9-0.8,2.9-1.1c12.8-3.1,25.3-6.9,37.8-11
	c14-4.6,27.9-9.4,41.7-14.5c36.3-13.3,72.1-28.1,108-42.5c29.2-11.7,58.4-23.5,88.1-34.2c17.6-6.3,35.3-12.4,53.2-18.1
	c30.2-9.6,60.9-17.2,92.5-21.5c20.3-2.8,40.8-3.6,61.3-1.6c0.9,0.1,2,0.2,2.9,0.2c0.3,0,0.6-0.2,1.2-0.3c-0.2-1-0.2-2.1-0.5-3.2
	c-5.5-23.8-13.6-46.6-24.3-68.6c-15.2-31.1-30.5-62.4-45.5-93.6c-2.4-5-5.7-7.4-10.8-8.3c-2.8-0.4-5.7-0.8-8.6-1.3
	c-2.2-0.4-4.4-0.8-6.5-1.4c-3.1-0.9-5.2-2.6-6.4-5.9c-3.4-9.4-7-18.6-10.5-27.8c-7.7-20.4-15.3-40.7-22.9-61
	c-4.8-12.8-9.6-25.4-14.3-38.2c-0.7-1.8-1.1-3.7-0.7-5.7c0.2-1.1,0.5-2.2,1.1-3.1c2-3.7,5.8-4.4,8.8-1.5c1.6,1.5,2.8,3.5,3.8,5.4
	c2.9,5.9,5.6,11.9,8.2,17.8c8.1,18.3,16.1,36.6,24.4,54.8c2.7,5.9,5.8,11.8,8.9,17.5c0.6,1.3,1.5,2.5,2.4,3.5c0.3,0.4,1,0.4,1.7,0.6
	c0.5-2.3-0.3-4.1-1-5.8c-3.5-8.6-6.7-17.3-10.3-25.8c-8.5-19.3-17.2-38.6-25.6-57.8c-1.2-2.7-2.3-5.6-3.4-8.4
	c-0.2-0.6-0.5-1.2-0.7-1.8c-0.9-3.6,0.2-6.7,3.2-8.3c2.8-1.5,6.4-0.7,8.6,2.1c1.3,1.8,2.4,3.7,3.4,5.8c4.4,9.4,8.6,18.9,12.9,28.4
	c8.4,18.4,16.9,36.9,25.4,55.3c1.2,2.6,2.6,5.1,4.1,7.6c0.7,1.2,0.9,1.2,2.6-0.3c-1.4-4.8-3.4-9.6-5.5-14.3
	c-7.4-16.7-15-33.2-22.4-49.9c-4.6-10.6-9-21.2-13.4-31.9c-0.7-1.7-1.2-3.7-1.3-5.6c-0.2-2,0.5-3.9,2.5-4.8c2.1-1.1,4.2-0.6,5.8,1
	c1.4,1.5,2.8,3.2,3.7,4.9c3.3,6,6.6,12,9.7,18.2c12,24,24,48.1,36.1,72c4.7,9.2,9.6,18.4,14.7,27.5c1.6,3,2,5.6,0.7,8.7
	c-1.4,3.4-3,6.7-4.6,10c-1.9,3.7-3.8,7.5-5.8,11.1c-1.4,2.5-1.2,4.7,0.1,7.2c7.4,14,14.5,28.1,22,42.1c15.9,29.6,32,59,48,88.5
	c3.1,5.7,6.2,11.6,9.1,17.5c3.8,7.9,10.2,12.9,17.7,16.9c0.2,0.2,0.6,0,1.1,0c0-0.7,0-1.5-0.1-2.2c-2.5-13.6-3.2-27.4-3.4-41
	c-0.2-17.9-0.2-35.8-0.5-53.7c-0.2-15.8-0.9-31.6-3-47.4c-0.4-3.1-0.3-6,0.5-9c1.2-4.4,2-8.7,3.1-13c0.3-1.5,0.2-2.8-0.5-4.1
	c-3-5.3-5.8-10.6-8.8-16c-1.7-3.1-4.2-5.3-7.4-6.4c-1.6-0.6-3.3-1.3-5-1.8c-6.2-1.9-11-5.7-14.7-10.9c-3.6-4.9-6.2-10.5-8.3-16.2
	c-3-8.5-5.2-17.2-6.1-26.1c-1-8.5-2.1-16.8-3.1-25.2c-2.3-18.1-3.9-36.3-4.8-54.5c-0.9-17.1-1.2-34.2-0.1-51.3
	c0.7-11.4,2.1-22.6,4.7-33.7c1.8-7.3,4-14.5,7.5-21.2c1.4-2.6,2.9-5,4.6-7.3c0.5-0.7,1.6-1.1,2.5-1c1.3,0,1.9,1,2.1,2.2
	c0.2,1,0.3,1.9,0.6,2.8c15.1,82.1,30.2,164.3,45.4,246.5c0.7,4,0.9,7.9-0.3,11.8c-1,3.2-1.4,6.5-2,9.8c1.5,2.8,2.8,5.8,4.4,8.5
	c2.7,4.6,4.3,9.6,5.7,14.6c2.6,9.4,5.2,18.8,8.2,28.1c3.7,12,7.7,24,11.8,36c4.8,13.8,9.7,27.4,14.6,41.1c1.8,5.2,3.7,10.2,5.4,15.4
	c2.3,7.5,1.1,14.5-3.4,21c-4.6,6.5-10.9,10.7-18.5,13c-6.2,1.9-12.6,2.4-19,1.3C594.3,456.9,593.2,456.8,591.5,456.7z M538.8,15.6
	c-0.3,0-0.6,0-0.9,0c-0.5,1-1.1,1.9-1.5,2.9c-2.8,6.2-4.7,12.6-6.2,19.2c-2.6,11.6-3.8,23.3-4.4,35.2c-1.2,23.9-0.1,47.6,1.9,71.4
	c1.7,19.3,3.9,38.5,6.8,57.6c1.1,7.3,2.7,14.5,5.2,21.4c2,5.7,4.6,11.2,8.3,16.1c3,3.9,6.7,6.8,11.4,8.3c1.8,0.6,3.7,1.2,5.4,1.9
	c4.5,1.8,7.9,4.6,10.3,8.9c1.8,3.3,3.7,6.8,5.5,10.1c0.3,0.5,0.7,0.9,1,1.3c0.4-0.2,0.7-0.1,0.7-0.2c1.5-3.9,2-7.9,1.2-12.2
	c-6.1-32.2-12-64.5-18-96.7c-8.7-47-17.3-94-25.9-141C539.4,18.2,539.1,16.9,538.8,15.6z M584.5,286.3c-0.3,0.4-0.7,0.5-0.8,0.7
	c-1.7,5.8-3,11.6-2.2,17.9c2.3,17.5,2.6,35.1,2.9,52.6c0.3,20.3-0.1,40.5,0.9,60.9c0.4,9.8,1.5,19.4,3.6,29c0.2,1.1,0.7,2.1,1,3.2
	c8.6,2.9,17.1,2.8,25.5-0.4c4.6-1.7,8.6-4.4,11.8-8.1c4.8-5.4,6.4-11.7,4.5-18.7c-0.3-1.1-0.6-2.1-1-3.2
	c-4.6-12.6-9.3-25.2-13.7-37.8c-5.2-14.9-10.2-29.9-15-45c-4.1-13.1-7.9-26.3-11.6-39.5C588.9,293.7,586.7,290,584.5,286.3z
	 M545.4,463.8c0.1,1.3,0.2,2.2,0.3,3.1c2.8,12,5.3,24.1,9,35.8c3.1,9.7,6.9,19.2,12.4,28c6.1,9.7,14.9,16.3,25.5,20.2
	c6.9,2.4,8.7,1.3,12.8-4c4.2-5.2,5.5-11.4,5.6-17.9c0.1-7.1-1.3-14-3.5-20.7c-2.8-8.3-6.6-16.3-11.6-23.5c-1.8-2.5-3.9-4.5-6.6-6
	c-12.6-7.1-26.2-11.8-40.4-14.5C547.7,463.8,546.6,463.9,545.4,463.8z M661.5,490.8c7.1,0.1,15.8-1.8,20.7-4.4
	c0.1-0.9,0.4-2,0.5-3.1c1-14.4,0.5-28.7-0.6-43.1c0-0.6,0-1.3-1.2-1.2c-0.6,0.9-1.3,2-1.9,3.1c-6.1,11.6-11.2,23.7-15.1,36.2
	c-0.9,2.9-1.5,5.9-2.2,8.8C661.4,488.3,661.5,489.4,661.5,490.8z"/>
</svg>
