<?xml version="1.0" encoding="utf-8"?>
<!-- Generator: Adobe Illustrator 26.5.0, SVG Export Plug-In . SVG Version: 6.00 Build 0)  -->
<svg version="1.1" id="Lag_1" xmlns="http://www.w3.org/2000/svg" xmlns:xlink="http://www.w3.org/1999/xlink" x="0px" y="0px"
	 viewBox="0 0 444.5 444.5" style="enable-background:new 0 0 444.5 444.5;" xml:space="preserve">
<style type="text/css">
	.st0{fill:none;stroke:#FFFFFF;stroke-width:5;stroke-miterlimit:10;}
	.st1{fill:#FFFFFF;}
	.st2{fill:none;}
	.st3{font-family:'Microsoft-Yi-Baiti';}
	.st4{font-size:48px;}
	.st5{letter-spacing:1;}
</style>
<g>
	<circle class="st0" cx="222.3" cy="222.3" r="219.8"/>
	<path class="st1" d="M275,85.7c-6.6,7.1-13.4,14-19.9,21.2c-4.9,5.4-10.1,9.1-17.8,5.7c-0.7-0.3-2.4,0.3-3,1
		c-3.7,4.3-7.2,8.8-11,13.4c4.2,4.5,8.1,8.7,12,12.8c4.3,4.6,8.7,9.2,12.9,13.9c2.7,3.1,2.6,6.3,0,8.6c-2.6,2.4-6.1,2-8.8-1.3
		c-5.9-7.5-11.7-15.1-17.5-22.7c-1.1-1.5-2.3-3-3.8-4.9c-2.2,2.6-4.3,4.9-6.2,7.2c-5.5,6.5-10.9,13.1-16.5,19.6
		c-3,3.5-6.1,3.9-8.7,1.5c-2.6-2.4-2.4-5.7,0.8-8.9c7.4-7.4,14.9-14.6,22.5-21.9c1.1-1.1,2.6-1.9,4.1-3.1
		c-5.6-7.3-10.5-13.9-15.5-20.5c-1.2,0.3-2.2,0.5-3.1,0.8c-5.3,1.6-10,0.6-13.8-3.4c-5.4-5.8-9.3-12.5-11.5-20.1
		c-0.5-1.7-0.6-3.5-0.5-5.2c0.3-6.6,5.7-10.8,11.8-8.5c9.1,3.4,16.8,9.3,22.1,17.5c3.4,5.2,2,10.4-1.5,15.8
		c5.3,5.8,10.7,11.7,16.8,18.3c4.7-4.6,9.1-8.9,13.6-13.3c-0.3-0.8-0.5-1.5-0.8-2.1c-2.9-5.4-2.4-10.6,1.6-15.1
		c7-7.8,14.1-15.4,21.3-23c0.9-0.9,2.9-0.7,4.4-1c-0.2,1.5,0.1,3.6-0.8,4.5c-5.3,6.1-10.9,11.9-16.4,17.9c-0.9,1-1.8,2-2.7,3
		c0.3,0.3,0.6,0.5,0.8,0.8c0.8-0.7,1.7-1.3,2.4-2c5-5.4,10-10.8,15-16.2c0.8-0.9,1.5-2,2.5-2.5c1.3-0.6,2.8-0.6,4.2-0.9
		c-0.2,1.6,0.1,3.5-0.7,4.6c-2.7,3.4-5.9,6.6-8.9,9.8c-3.4,3.7-6.8,7.3-10.1,10.9c0.2,0.3,0.5,0.6,0.7,0.9c0.9-0.7,1.8-1.3,2.6-2.1
		c5.4-5.8,10.8-11.7,16.2-17.5c1.4-1.5,3-4,5.4-1.7c2.1,2,0,3.7-1.4,5.2c-5.2,5.6-10.4,11.2-15.6,16.8c-1,1-1.8,2.2-2.7,3.2
		c0.2,0.2,0.5,0.5,0.7,0.8c0.9-0.8,1.8-1.4,2.6-2.3c5.5-5.9,11.1-11.8,16.5-17.8c1.7-1.9,3.5-2.5,5.8-1.4
		C275,83.3,275,84.5,275,85.7z"/>
	<rect x="75.4" y="243" class="st2" width="293.8" height="85.9"/>
	<text transform="matrix(1 0 0 1 134.8052 268.6998)" class="st1 st3 st4 st5">KICKASS</text>
	<text transform="matrix(1 0 0 1 86.0652 326.2998)" class="st1 st3 st4 st5">RESTAURANT</text>
</g>
</svg>
