<?xml version="1.0" encoding="utf-8"?>
<!-- Generator: Adobe Illustrator 26.5.0, SVG Export Plug-In . SVG Version: 6.00 Build 0)  -->
<svg version="1.1" id="Lag_1" xmlns="http://www.w3.org/2000/svg" xmlns:xlink="http://www.w3.org/1999/xlink" x="0px" y="0px"
	 viewBox="0 0 444.55 444.55" style="enable-background:new 0 0 444.55 444.55;" xml:space="preserve">
<style type="text/css">
	.st0{fill:none;stroke:#2A1000;stroke-width:5;stroke-miterlimit:10;}
	.st1{fill:none;}
	.st2{font-family:'Microsoft-Yi-Baiti';}
	.st3{font-size:48px;}
	.st4{letter-spacing:2;}
</style>
<g>
	<circle class="st0" cx="222.27" cy="222.27" r="219.77"/>
	<path d="M274.99,85.7c-6.65,7.05-13.41,14-19.93,21.18c-4.9,5.39-10.06,9.11-17.75,5.68c-0.74-0.33-2.4,0.27-3,0.97
		c-3.7,4.31-7.22,8.77-11,13.42c4.18,4.48,8.07,8.66,11.96,12.84c4.31,4.63,8.7,9.19,12.89,13.93c2.73,3.09,2.59,6.31,0.03,8.61
		c-2.63,2.37-6.14,2.01-8.8-1.34c-5.94-7.49-11.69-15.13-17.52-22.71c-1.15-1.5-2.33-2.98-3.8-4.87c-2.25,2.6-4.27,4.87-6.23,7.19
		c-5.51,6.52-10.94,13.1-16.5,19.57c-3.02,3.51-6.11,3.95-8.73,1.54c-2.57-2.36-2.4-5.72,0.77-8.85
		c7.42-7.35,14.93-14.61,22.46-21.85c1.15-1.11,2.57-1.94,4.15-3.11c-5.55-7.35-10.47-13.86-15.47-20.48
		c-1.2,0.29-2.18,0.48-3.12,0.77c-5.27,1.58-9.97,0.57-13.75-3.44c-5.43-5.76-9.27-12.52-11.54-20.1c-0.5-1.65-0.6-3.5-0.53-5.24
		c0.26-6.62,5.68-10.8,11.82-8.49c9.13,3.44,16.75,9.26,22.12,17.5c3.38,5.19,1.98,10.43-1.54,15.78
		c5.33,5.81,10.74,11.69,16.77,18.26c4.67-4.56,9.08-8.88,13.64-13.33c-0.32-0.79-0.52-1.46-0.84-2.06
		c-2.93-5.42-2.45-10.58,1.62-15.11c6.97-7.78,14.08-15.43,21.32-22.96c0.87-0.91,2.93-0.68,4.43-0.98
		c-0.24,1.54,0.07,3.55-0.8,4.54c-5.32,6.09-10.91,11.95-16.4,17.9c-0.91,0.99-1.79,2.02-2.68,3.03c0.27,0.27,0.55,0.54,0.82,0.81
		c0.79-0.67,1.66-1.28,2.36-2.03c5.02-5.38,10-10.79,15-16.19c0.8-0.86,1.46-2.04,2.45-2.5c1.28-0.59,2.82-0.61,4.25-0.87
		c-0.2,1.55,0.14,3.53-0.69,4.58c-2.73,3.45-5.89,6.57-8.88,9.81c-3.38,3.65-6.76,7.3-10.14,10.95c0.24,0.3,0.48,0.59,0.72,0.89
		c0.86-0.7,1.8-1.32,2.55-2.12c5.43-5.8,10.79-11.66,16.24-17.45c1.44-1.53,3.01-4.04,5.38-1.7c2.06,2.04-0.02,3.73-1.38,5.22
		c-5.18,5.63-10.4,11.22-15.59,16.85c-0.96,1.04-1.82,2.16-2.72,3.24c0.23,0.25,0.46,0.51,0.69,0.76c0.88-0.76,1.83-1.44,2.62-2.29
		c5.52-5.91,11.07-11.8,16.48-17.83c1.73-1.93,3.49-2.47,5.8-1.45C274.99,83.35,274.99,84.53,274.99,85.7z"/>
	<rect x="75.38" y="243.02" class="st1" width="293.79" height="85.88"/>
	<text transform="matrix(1 0 0 1 134.8052 268.6998)"><tspan x="0" y="0" class="st2 st3 st4">KICKASS</tspan><tspan x="-48.74" y="57.6" class="st2 st3 st4">RESTAURANT</tspan></text>
</g>
</svg>
